<?xml version="1.0" encoding="UTF-8" standalone="no"?>
<svg
   xmlns:dc="http://purl.org/dc/elements/1.1/"
   xmlns:cc="http://creativecommons.org/ns#"
   xmlns:rdf="http://www.w3.org/1999/02/22-rdf-syntax-ns#"
   xmlns:svg="http://www.w3.org/2000/svg"
   xmlns="http://www.w3.org/2000/svg"
   xmlns:sodipodi="http://sodipodi.sourceforge.net/DTD/sodipodi-0.dtd"
   xmlns:inkscape="http://www.inkscape.org/namespaces/inkscape"
   inkscape:version="1.0 (6e3e5246a0, 2020-05-07)"
   sodipodi:docname="conflux-logo.svg"
   id="svg32"
   preserveAspectRatio="xMidYMid meet"
   viewBox="0 0 2455 2649.1748"
   height="264.91748"
   width="245.5"
   version="1.0">
  <metadata
     id="metadata38">
    <rdf:RDF>
      <cc:Work
         rdf:about="">
        <dc:format>image/svg+xml</dc:format>
        <dc:type
           rdf:resource="http://purl.org/dc/dcmitype/StillImage" />
        <dc:title></dc:title>
      </cc:Work>
    </rdf:RDF>
  </metadata>
  <defs
     id="defs36" />
  <sodipodi:namedview
     inkscape:current-layer="svg32"
     inkscape:window-maximized="1"
     inkscape:window-y="27"
     inkscape:window-x="0"
     inkscape:cy="119.39203"
     inkscape:cx="99.5"
     inkscape:zoom="0.871875"
     fit-margin-bottom="-70"
     fit-margin-right="0"
     fit-margin-left="-115"
     fit-margin-top="0"
     showgrid="false"
     id="namedview34"
     inkscape:window-height="704"
     inkscape:window-width="1366"
     inkscape:pageshadow="2"
     inkscape:pageopacity="0"
     guidetolerance="10"
     gridtolerance="10"
     objecttolerance="10"
     borderopacity="1"
     bordercolor="#666666"
     pagecolor="#ffffff" />
  <g
     transform="translate(-2205,-1820)"
     stroke="none"
     fill="#e87416"
     id="layer101">
    <path
       id="path2"
       d="m 3424,3342 c -21,-3 -22,-10 -25,-116 -4,-127 -13,-146 -65,-146 -18,0 -36,-5 -40,-11 -12,-20 25,-44 67,-44 34,0 46,6 70,33 29,32 29,34 29,157 0,68 -3,125 -7,127 -5,2 -18,2 -29,0 z" />
    <path
       id="path4"
       d="m 2900,3327 c -96,-48 -100,-220 -7,-277 67,-41 89,-13 37,47 -25,29 -30,42 -30,88 0,46 5,59 30,88 49,56 33,86 -30,54 z" />
    <path
       id="path6"
       d="m 2980,3322 c 0,-11 14,-34 30,-50 26,-27 30,-38 30,-86 0,-47 -4,-60 -30,-89 -37,-43 -41,-78 -7,-70 34,9 76,42 92,73 8,16 15,54 15,85 0,85 -35,139 -98,151 -28,6 -32,4 -32,-14 z" />
    <path
       id="path8"
       d="m 3207,3333 c -4,-3 -7,-73 -7,-155 v -148 h 35 35 v 155 155 h -28 c -16,0 -32,-3 -35,-7 z" />
    <path
       id="path10"
       d="m 3580,3205 c 0,-128 -1,-135 -20,-135 -13,0 -20,-7 -20,-20 0,-13 7,-20 19,-20 14,0 21,-10 26,-36 10,-55 45,-84 99,-84 25,0 47,4 50,9 12,19 -7,41 -35,41 -18,0 -32,7 -39,21 -15,27 -6,49 20,49 13,0 20,7 20,20 0,15 -7,20 -25,20 h -25 v 135 135 h -35 -35 z" />
    <path
       id="path12"
       d="m 3835,3310 c -12,-23 -15,-68 -15,-215 v -185 h 35 35 v 186 186 l 30,11 c 18,7 30,19 30,29 0,15 -9,18 -50,18 -45,0 -51,-3 -65,-30 z" />
    <path
       id="path14"
       d="m 4051,3305 c -31,-36 -31,-36 -31,-155 v -120 h 35 35 v 108 c 0,127 11,152 66,152 27,0 34,4 34,19 0,23 -19,31 -70,31 -31,0 -44,-6 -69,-35 z" />
    <path
       id="path16"
       d="m 4220,3201 c 0,-77 -3,-146 -6,-155 -5,-13 1,-16 30,-16 h 36 v 155 155 h -30 -30 z" />
    <path
       id="path18"
       d="m 4380,3335 c 0,-3 20,-36 45,-73 25,-37 45,-71 45,-77 0,-6 -20,-40 -45,-77 -25,-37 -45,-70 -45,-73 0,-3 16,-5 35,-5 51,0 88,60 93,150 3,59 0,70 -27,113 -27,41 -35,47 -66,47 -19,0 -35,-2 -35,-5 z" />
    <path
       id="path20"
       d="m 4560,3293 c -25,-40 -30,-59 -30,-111 0,-54 4,-70 30,-108 27,-38 36,-44 65,-44 19,0 35,2 35,5 0,3 -20,36 -45,73 -25,37 -45,71 -45,77 0,6 20,40 45,77 25,37 45,70 45,73 0,3 -16,5 -35,5 -31,0 -38,-6 -65,-47 z" />
  </g>
  <g
     transform="translate(-2205,-1820)"
     stroke="none"
     fill="#728ad9"
     id="layer102">
    <path
       id="path23"
       d="m 1080,5150 -25,-21 35,3 c 24,2 36,9 38,21 5,23 -17,21 -48,-3 z" />
    <path
       id="path25"
       d="m 2258,4123 3,-338 49,-50 c 28,-28 50,-55 50,-61 0,-6 -12,-21 -26,-35 -14,-13 -35,-36 -46,-51 l -19,-28 44,-57 c 24,-32 76,-105 117,-162 l 73,-104 30,39 c 53,68 135,141 189,168 l 52,26 h 392 392 l 1,186 c 1,129 -2,190 -10,200 -9,12 -78,14 -398,14 h -386 l -50,29 c -78,45 -170,149 -318,364 -76,108 -139,197 -140,197 -1,0 -1,-152 1,-337 z" />
    <path
       id="path27"
       d="m 2257,3058 c 2,-178 3,-328 3,-334 0,-6 25,-36 55,-68 30,-31 55,-60 55,-64 0,-4 -24,-32 -54,-61 l -55,-54 63,-81 c 35,-45 86,-116 115,-158 28,-43 55,-78 59,-78 4,0 21,19 37,41 45,61 128,134 187,163 l 52,26 h 365 c 202,0 376,3 389,6 22,6 22,8 22,200 v 193 l -382,3 c -426,3 -412,1 -511,76 -63,47 -134,136 -277,345 -63,91 -117,167 -120,167 -3,0 -4,-145 -3,-322 z" />
    <path
       id="path29"
       d="m 2254,2059 c 0,-131 1,-239 1,-239 1,0 17,21 35,48 19,26 60,74 92,108 l 58,61 -86,124 c -47,68 -89,127 -92,131 -4,4 -7,-101 -8,-233 z" />
  </g>
</svg>
